NOTE:
This is not an HD file. The _source_ is HDTV. As the name of the file, the name of the torrent and the details below tell you, this is 272p video. A small resolution of acceptable quality that is playable on more devices than most video files. This file should be playable on all modern PCs including those with Windows, Mac OS, or GNU/Linux variants, Android smartphones, iPhones, iPod4 and up, iPad1 or 2, Android tablets, PSPs, generic PMP and MID devices, Windows Phone 7, Windows CE/Windows Mobile phones, other smart and some not-so-smart phones, XBox 360, Wii, PS3, BluRay players, many DVD players and probably your smart toaster. DO NOT EXPECT THIS SMALL VIDEO FILES TO PLAY IN Hi-Def ON YOUR 50" PLASMA BRAIN DRAIN SCREEN.

General
Format                           : MPEG-4
Format profile                   : Base Media / Version 2
Codec ID                         : mp42
File size                        : 99.1 MiB
Duration                         : 47mn 45s
Overall bit rate                 : 290 Kbps

Video
ID                               : 1
Format                           : AVC
Format/Info                      : Advanced Video Codec
Format profile                   : Baseline@L2.1
Format settings, CABAC           : No
Format settings, ReFrames        : 2 frames
Codec ID                         : avc1
Codec ID/Info                    : Advanced Video Coding
Duration                         : 47mn 45s
Bit rate mode                    : Variable
Bit rate                         : 240 Kbps
Width                            : 480 pixels
Height                           : 272 pixels
Display aspect ratio             : 16:9
Frame rate mode                  : Variable
Frame rate                       : 25.000 fps
Minimum frame rate               : 12.500 fps
Maximum frame rate               : 25.000 fps
Color space                      : YUV
Chroma subsampling               : 4:2:0
Bit depth                        : 8 bits
Scan type                        : Progressive
Bits/(Pixel*Frame)               : 0.074
Stream size                      : 82.0 MiB (83%)
Writing library                  : x264 core 79

Audio
ID                               : 2
Format                           : AAC
Format/Info                      : Advanced Audio Codec
Format profile                   : LC
Codec ID                         : 40
Duration                         : 47mn 45s
Bit rate mode                    : Variable
Bit rate                         : 48.0 Kbps
Maximum bit rate                 : 69.1 Kbps
Channel(s)                       : 2 channels
Channel positions                : Front: L R
Sampling rate                    : 24.0 KHz
Compression mode                 : Lossy
Stream size                      : 16.4 MiB (17%)
